<?xml version="1.0" encoding="utf-8"?>
<!-- Generator: Adobe Illustrator 15.0.0, SVG Export Plug-In . SVG Version: 6.00 Build 0)  -->
<!DOCTYPE svg PUBLIC "-//W3C//DTD SVG 1.1//EN" "http://www.w3.org/Graphics/SVG/1.1/DTD/svg11.dtd">
<svg version="1.1" id="Layer_1" xmlns="http://www.w3.org/2000/svg" xmlns:xlink="http://www.w3.org/1999/xlink" x="0px" y="0px"
	 width="356px" height="105px" viewBox="118.14 369.445 356 105" enable-background="new 118.14 369.445 356 105"
	 xml:space="preserve">
<g>
	<path d="M241.744,403.01v13.631h17.291v8.647h-17.291v14.414h19.501v8.879h-29.803V394.13h29.803v8.88H241.744z"/>
	<path d="M277.213,394.13v54.451h-10.302V394.13H277.213z"/>
	<path d="M359.951,415.93c2.723,2.723,4.084,6.525,4.084,11.409v21.248h-9.149v-20.002c0-2.834-0.717-5-2.155-6.505
		c-1.438-1.504-3.4-2.254-5.881-2.254s-4.459,0.75-5.914,2.254c-1.461,1.505-2.188,3.671-2.188,6.505v20.002h-9.149v-20.002
		c0-2.834-0.717-5-2.155-6.505c-1.438-1.504-3.401-2.254-5.881-2.254c-2.48,0-4.521,0.75-5.98,2.254
		c-1.461,1.505-2.188,3.671-2.188,6.505v20.002h-9.149v-36.219h9.149v4.383c1.18-1.527,2.689-2.724,4.542-3.594
		c1.852-0.871,3.892-1.307,6.112-1.307c2.833,0,5.363,0.601,7.585,1.797c2.221,1.201,3.946,2.91,5.164,5.132
		c1.174-2.095,2.889-3.771,5.132-5.033c2.243-1.262,4.674-1.896,7.286-1.896c4.442,0,8.031,1.361,10.754,4.084L359.951,415.93z"/>
	<path d="M284.313,404.354c-1.202-1.152-1.803-2.585-1.803-4.305s0.601-3.153,1.803-4.305c1.201-1.152,2.712-1.731,4.525-1.731
		c1.813,0,3.323,0.579,4.524,1.731c1.202,1.152,1.803,2.591,1.803,4.305s-0.601,3.152-1.803,4.305
		c-1.201,1.151-2.712,1.73-4.524,1.73C287.025,406.085,285.514,405.506,284.313,404.354z M293.914,411.58v37.001h-10.302V411.58
		H293.914z"/>
	<path d="M374.712,404.354c-1.201-1.152-1.803-2.585-1.803-4.305s0.602-3.153,1.803-4.305c1.201-1.152,2.712-1.731,4.525-1.731
		s3.323,0.579,4.525,1.731c1.201,1.152,1.802,2.591,1.802,4.305s-0.601,3.152-1.802,4.305c-1.202,1.151-2.712,1.73-4.525,1.73
		S375.913,405.506,374.712,404.354z M384.314,411.58v37.001h-10.302V411.58H384.314z"/>
	<path d="M414.817,448.581l-13.835-17.367v17.367H390.68V394.13h10.302v30.982l9.701-12.826h13.394l-13.973,15.995l18.101,20.312
		h-13.394L414.817,448.581z"/>
	<path d="M431.765,420.471c1.472-2.854,3.468-5.049,5.992-6.586c2.524-1.538,5.341-2.305,8.46-2.305
		c2.724,0,5.104,0.552,7.144,1.648c2.04,1.097,3.677,2.48,4.905,4.15v-5.203h9.282v36.478h-9.282v-5.336
		c-1.185,1.715-2.821,3.126-4.905,4.244c-2.083,1.119-4.486,1.682-7.209,1.682c-3.076,0-5.87-0.788-8.395-2.37
		s-4.521-3.809-5.992-6.681c-1.472-2.877-2.204-6.179-2.204-9.91S430.293,423.326,431.765,420.471L431.765,420.471z
		 M456.949,424.654c-0.877-1.604-2.062-2.833-3.556-3.688c-1.493-0.854-3.092-1.284-4.807-1.284c-1.714,0-3.29,0.419-4.74,1.251
		c-1.449,0.833-2.623,2.051-3.521,3.655c-0.898,1.604-1.351,3.5-1.351,5.693s0.452,4.117,1.351,5.76
		c0.898,1.648,2.083,2.91,3.555,3.787c1.472,0.876,3.037,1.317,4.707,1.317c1.671,0,3.313-0.431,4.807-1.285
		c1.494-0.854,2.679-2.083,3.556-3.687c0.876-1.604,1.316-3.522,1.316-5.761C458.266,428.177,457.825,426.259,456.949,424.654z"/>
</g>
<g>
	<path d="M194.166,379.331c-0.909,1.979-1.472,4.712-1.472,7.744c0,5.903,2.139,10.72,4.822,10.952v0.86h-57.974
		c-6.525,0-11.812-5.286-11.812-11.812c0-3.263,1.323-6.217,3.467-8.351c2.128-2.139,5.088-3.467,8.351-3.467h57.974v0.871
		c-1.312,0.116-2.48,1.312-3.346,3.197L194.166,379.331z"/>
	<path d="M209.957,413.201c-0.909,1.979-1.472,4.712-1.472,7.744c0,5.903,2.139,10.721,4.823,10.952v0.859h-57.974
		c-6.526,0-11.813-5.286-11.813-11.812c0-3.264,1.323-6.218,3.468-8.351c2.127-2.139,5.087-3.467,8.351-3.467h57.974v0.87
		c-1.313,0.116-2.48,1.313-3.346,3.197L209.957,413.201z"/>
	<path d="M194.166,447.071c-0.909,1.979-1.472,4.713-1.472,7.744c0,5.903,2.139,10.721,4.822,10.952v0.859h-57.974
		c-6.525,0-11.812-5.285-11.812-11.812c0-3.263,1.323-6.218,3.467-8.351c2.128-2.139,5.088-3.467,8.351-3.467h57.974v0.871
		c-1.312,0.115-2.48,1.312-3.346,3.196L194.166,447.071z"/>
</g>
</svg>
