<svg width="24" height="24" viewBox="0 0 24 24" fill="none" xmlns="http://www.w3.org/2000/svg">
<path d="M20.6402 12.1994C20.6509 11.5805 20.5868 10.9615 20.4517 10.3604H11.9998V13.7006H16.9621C16.7735 14.8851 16.1083 15.938 15.123 16.621L15.1052 16.7313L17.7767 18.8016L17.9616 18.8194C19.6584 17.2507 20.6402 14.942 20.6402 12.1994Z" fill="#4285F4"/>
<path d="M11.9997 21.0001C14.4293 21.0001 16.4711 20.1997 17.9616 18.8195L15.123 16.6176C14.2016 17.2366 13.1096 17.5496 12.0033 17.5176C9.66976 17.5033 7.60658 15.9951 6.88091 13.7754L6.7742 13.7861L3.99602 15.9346L3.96045 16.0342C5.48293 19.0827 8.59549 21.0036 11.9997 21.0001Z" fill="#34A853"/>
<path d="M6.87735 13.7789C6.68171 13.2062 6.57855 12.605 6.57855 11.9968C6.5821 11.392 6.68171 10.7909 6.87024 10.2146L6.86668 10.0972L4.05293 7.91309L3.96045 7.95577C2.67985 10.4992 2.67985 13.4943 3.96045 16.0377L6.87735 13.7789Z" fill="#FBBC05"/>
<path d="M11.9997 6.47949C13.291 6.45814 14.536 6.93837 15.4786 7.82055L18.0185 5.34118C16.3893 3.81158 14.2301 2.97564 11.9961 3.00054C8.5919 3.00054 5.47935 4.91787 3.95331 7.96284L6.8631 10.2217C7.59588 8.00197 9.66262 6.49371 11.9997 6.47949Z" fill="#EB4335"/>
</svg>
