<?xml version="1.0" encoding="UTF-8"?>
<svg id="Layer_1" data-name="Layer 1" xmlns="http://www.w3.org/2000/svg" viewBox="0 0 615.56 703.04">
  <defs>
    <style>
      .cls-1 {
        fill: #fff;
      }
    </style>
  </defs>
  <path class="cls-1" d="m561.74,159.15c6.78,12.48,12.6,23.2,19.23,35.43-68.38,38.93-135.89,77.35-203.39,115.78.22,1.05.44,2.11.66,3.16,77.12-7.24,154.24-14.48,232.95-21.87,1.5,13.66,2.88,26.19,4.37,39.81-54.53,4.22-106.99,8.33-159.46,12.33-23.18,1.77-46.36,3.84-69.58,4.82-25.83,1.09-38.4-7.34-43.94-27.74-4.9-18.05,3.16-33.42,23.59-45.54,64.39-38.2,128.73-76.46,195.56-116.17Z"/>
  <path class="cls-1" d="m273.99,0c13.07.72,25.31,1.39,39.49,2.17-4.12,78.9-8.2,156.93-12.27,234.96.87.23,1.73.45,2.6.68,35.73-69.39,71.46-138.78,107.73-209.21,12.41,5.85,22.98,10.83,35.78,16.86-7.02,13.72-13.28,26.46-19.97,38.98-27.28,50.97-54.62,101.91-82.12,152.75-3.92,7.24-8.44,14.25-13.41,20.81-10.38,13.69-23.4,17.51-39.71,12.96-16.04-4.48-24.69-15.59-25.4-31.36-.9-20.07,0-40.25.61-60.37,1.66-54.21,3.56-108.42,5.42-162.63.17-5.08.75-10.14,1.25-16.59Z"/>
  <path class="cls-1" d="m0,159.2c9.21-10.54,17.21-19.69,26.31-30.11,59.68,50.83,118.39,100.82,177.09,150.82.71-.51,1.42-1.01,2.12-1.52-33.07-69.72-66.15-139.44-100.21-211.24,11.77-6.07,22.93-11.82,35.6-18.36,10.49,23.15,20.45,45.13,30.4,67.12,20.87,46.1,41.84,92.16,62.53,138.34,6.28,14.02,10.03,28.55.72,42.83-13.09,20.08-35.92,23.91-56.52,7.63-41.68-32.95-82.53-66.95-123.67-100.58C36.86,189.79,19.47,175.29,0,159.2Z"/>
  <path class="cls-1" d="m608.87,424.97c-3.31,12.94-6.35,24.79-9.91,38.71-76.46-18.52-151.98-36.82-227.49-55.12-.48.79-.96,1.58-1.44,2.38,60.58,47.03,121.16,94.05,183.9,142.76-7.87,10.42-15.42,20.4-23.97,31.71-8.12-6.39-15.37-11.99-22.5-17.72-49.49-39.79-98.97-79.6-148.4-119.47-4.41-3.55-8.61-7.42-12.55-11.48-12.27-12.66-14.67-27.56-7.11-42.54,8.35-16.54,21.34-23.59,42.85-19.28,44.56,8.93,88.84,19.3,133.23,29.14,30.66,6.8,61.29,13.72,93.39,20.91Z"/>
  <path class="cls-1" d="m425.14,668.86c-12.31,5.19-23.58,9.94-36.83,15.52-31.49-72.1-62.58-143.3-93.68-214.51-.92.1-1.84.2-2.76.29-.82,76.69-1.63,153.37-2.48,232.79-13.06.03-25.57.06-39.75.09.18-10.34.26-19.49.51-28.64,1.76-63.48,3.54-126.96,5.4-190.43.17-5.66.7-11.34,1.56-16.94,2.66-17.43,13.08-28.35,29.58-31.39,18.23-3.35,31.69,2.73,41.27,22.47,19.84,40.9,38.36,82.43,57.36,123.73,13.12,28.53,26.14,57.11,39.82,87.02Z"/>
</svg>