<?xml version="1.0" encoding="UTF-8"?>
<svg id="Layer_1" data-name="Layer 1" xmlns="http://www.w3.org/2000/svg" viewBox="0 0 586.48 173.59">
  <defs>
    <style>
      .cls-1 {
        fill: #72be4a;
      }

      .cls-2 {
        fill: #902a8a;
      }

      .cls-3 {
        fill: #1f75ba;
      }

      .cls-4 {
        fill: #ed463b;
      }

      .cls-5 {
        fill: #f9ab25;
      }
    </style>
  </defs>
  <g>
    <path class="cls-2" d="m138.7,39.3c1.67,3.08,3.11,5.73,4.75,8.75-16.88,9.61-33.55,19.1-50.22,28.59.05.26.11.52.16.78,19.04-1.79,38.08-3.58,57.52-5.4.37,3.37.71,6.47,1.08,9.83-13.47,1.04-26.42,2.06-39.37,3.04-5.72.44-11.45.95-17.18,1.19-6.38.27-9.48-1.81-10.85-6.85-1.21-4.46.78-8.25,5.82-11.25,15.9-9.43,31.79-18.88,48.29-28.69Z"/>
    <path class="cls-4" d="m67.65,0c3.23.18,6.25.34,9.75.54-1.02,19.48-2.02,38.75-3.03,58.01.21.06.43.11.64.17,8.82-17.13,17.65-34.27,26.6-51.66,3.06,1.44,5.68,2.67,8.84,4.16-1.73,3.39-3.28,6.53-4.93,9.62-6.73,12.59-13.49,25.16-20.28,37.72-.97,1.79-2.08,3.52-3.31,5.14-2.56,3.38-5.78,4.32-9.8,3.2-3.96-1.11-6.1-3.85-6.27-7.74-.22-4.96,0-9.94.15-14.91.41-13.39.88-26.77,1.34-40.16.04-1.25.19-2.5.31-4.1Z"/>
    <path class="cls-1" d="m0,39.31c2.27-2.6,4.25-4.86,6.5-7.44,14.74,12.55,29.23,24.89,43.73,37.24.17-.12.35-.25.52-.37-8.17-17.21-16.33-34.43-24.74-52.16,2.91-1.5,5.66-2.92,8.79-4.53,2.59,5.72,5.05,11.14,7.51,16.57,5.15,11.38,10.33,22.75,15.44,34.16,1.55,3.46,2.48,7.05.18,10.58-3.23,4.96-8.87,5.9-13.95,1.88-10.29-8.13-20.38-16.53-30.54-24.84-4.33-3.54-8.62-7.12-13.43-11.09Z"/>
    <path class="cls-5" d="m150.34,104.93c-.82,3.2-1.57,6.12-2.45,9.56-18.88-4.57-37.53-9.09-56.17-13.61-.12.2-.24.39-.35.59,14.96,11.61,29.92,23.22,45.41,35.25-1.94,2.57-3.81,5.04-5.92,7.83-2.01-1.58-3.79-2.96-5.55-4.38-12.22-9.83-24.44-19.65-36.64-29.5-1.09-.88-2.13-1.83-3.1-2.83-3.03-3.13-3.62-6.8-1.76-10.5,2.06-4.09,5.27-5.82,10.58-4.76,11,2.21,21.94,4.76,32.9,7.2,7.57,1.68,15.13,3.39,23.06,5.16Z"/>
    <path class="cls-3" d="m104.97,165.15c-3.04,1.28-5.82,2.45-9.09,3.83-7.77-17.8-15.45-35.38-23.13-52.97-.23.02-.45.05-.68.07-.2,18.93-.4,37.87-.61,57.48-3.22,0-6.31.01-9.81.02.04-2.55.06-4.81.13-7.07.44-15.67.87-31.35,1.33-47.02.04-1.4.17-2.8.38-4.18.66-4.3,3.23-7,7.3-7.75,4.5-.83,7.83.67,10.19,5.55,4.9,10.1,9.47,20.35,14.16,30.55,3.24,7.04,6.45,14.1,9.83,21.49Z"/>
  </g>
  <g>
    <path d="m223.17,124.71c-1.78,0-3.68-.05-5.69-.15-2.01-.1-4.06-.26-6.13-.49-2.08-.23-4.04-.46-5.89-.69-1.85-.23-3.5-.51-4.95-.84v-9.6c1.85.13,4.01.26,6.48.4,2.47.13,5.06.23,7.77.3,2.7.07,5.31.1,7.82.1,2.64,0,4.98-.25,7.02-.74,2.04-.49,3.63-1.37,4.75-2.62,1.12-1.25,1.68-3.03,1.68-5.34v-3.46c0-2.57-.73-4.55-2.18-5.94-1.45-1.39-3.6-2.08-6.43-2.08h-6.83c-6.66,0-11.79-1.45-15.39-4.35-3.6-2.9-5.39-7.88-5.39-14.94v-3.76c0-7.06,1.96-12.15,5.89-15.29,3.92-3.13,9.55-4.7,16.87-4.7,2.51,0,5.1.12,7.77.35,2.67.23,5.23.51,7.67.84,2.44.33,4.52.69,6.23,1.09v9.6c-2.9-.2-6.22-.4-9.94-.59-3.73-.2-7.17-.3-10.34-.3-2.51,0-4.72.26-6.63.79-1.91.53-3.36,1.47-4.35,2.82-.99,1.35-1.48,3.35-1.48,5.99v2.37c0,3.1.84,5.28,2.52,6.53,1.68,1.25,4.11,1.88,7.27,1.88h7.62c4.29,0,7.82.79,10.59,2.37,2.77,1.58,4.83,3.74,6.18,6.48,1.35,2.74,2.03,5.86,2.03,9.35v4.65c0,5.41-1.06,9.57-3.17,12.47-2.11,2.9-5.01,4.88-8.71,5.94-3.69,1.05-7.92,1.58-12.66,1.58Z"/>
    <path d="m267.39,124.71c-3.96,0-7.19-1.19-9.7-3.56-2.51-2.37-3.76-5.64-3.76-9.8v-4.45c0-4.09,1.4-7.42,4.2-9.99,2.8-2.57,7.11-3.86,12.91-3.86h15.14v-4.65c0-1.85-.33-3.4-.99-4.65-.66-1.25-1.85-2.19-3.56-2.82-1.72-.63-4.32-.94-7.82-.94h-16.03v-7.12c2.44-.66,5.31-1.24,8.61-1.73,3.3-.49,7.22-.74,11.77-.74,4.35-.07,8.05.45,11.08,1.53,3.03,1.09,5.32,2.89,6.88,5.39,1.55,2.51,2.32,5.94,2.32,10.29v36.51h-9.6l-2.08-5.74c-.46.4-1.29.92-2.47,1.58-1.19.66-2.67,1.37-4.45,2.13-1.78.76-3.74,1.39-5.89,1.88-2.14.49-4.34.74-6.58.74Zm5.94-8.61c.86,0,1.83-.11,2.92-.35,1.09-.23,2.19-.49,3.31-.79,1.12-.3,2.16-.59,3.12-.89.96-.3,1.75-.58,2.37-.84.63-.26,1.01-.43,1.14-.49v-13.85l-11.48.59c-3.04.27-5.23,1.06-6.58,2.37-1.35,1.32-2.03,3.07-2.03,5.24v2.18c0,1.65.35,2.99,1.04,4.01.69,1.02,1.58,1.73,2.67,2.13,1.09.4,2.26.63,3.51.69Z"/>
    <path d="m308.16,124.12v-53.03h9.5l2.77,8.51c2.11-2.57,4.45-4.75,7.02-6.53,2.57-1.78,5.64-2.67,9.2-2.67.72,0,1.48.05,2.28.15.79.1,1.52.25,2.18.45v12.47c-.92-.13-1.91-.23-2.97-.3-1.06-.06-2.08-.1-3.07-.1-2.05,0-3.91.23-5.59.69-1.68.46-3.25,1.17-4.7,2.13-1.45.96-2.9,2.16-4.35,3.61v34.63h-12.27Z"/>
    <path d="m356.15,124.71c-3.96,0-7.19-1.19-9.7-3.56-2.51-2.37-3.76-5.64-3.76-9.8v-4.45c0-4.09,1.4-7.42,4.2-9.99,2.8-2.57,7.11-3.86,12.91-3.86h15.14v-4.65c0-1.85-.33-3.4-.99-4.65-.66-1.25-1.85-2.19-3.56-2.82-1.72-.63-4.32-.94-7.82-.94h-16.03v-7.12c2.44-.66,5.31-1.24,8.61-1.73,3.3-.49,7.22-.74,11.77-.74,4.35-.07,8.05.45,11.08,1.53,3.03,1.09,5.33,2.89,6.88,5.39,1.55,2.51,2.33,5.94,2.33,10.29v36.51h-9.6l-2.08-5.74c-.46.4-1.29.92-2.47,1.58-1.19.66-2.67,1.37-4.45,2.13-1.78.76-3.74,1.39-5.89,1.88-2.14.49-4.34.74-6.58.74Zm5.94-8.61c.86,0,1.83-.11,2.92-.35,1.09-.23,2.19-.49,3.31-.79,1.12-.3,2.16-.59,3.12-.89.96-.3,1.75-.58,2.37-.84.63-.26,1-.43,1.14-.49v-13.85l-11.48.59c-3.04.27-5.23,1.06-6.58,2.37-1.35,1.32-2.03,3.07-2.03,5.24v2.18c0,1.65.35,2.99,1.04,4.01.69,1.02,1.58,1.73,2.67,2.13,1.09.4,2.26.63,3.51.69Z"/>
    <path d="m400.55,124.12v-42.38h-7.58v-7.78l7.58-1.94v-4.37c0-4.15.54-7.56,1.6-10.25,1.07-2.69,2.82-4.7,5.25-6.03,2.43-1.33,5.65-1.99,9.67-1.99,2.27,0,4.28.15,6.03.44,1.75.29,3.24.57,4.47.83v8.55h-8.26c-1.75,0-3.11.29-4.08.87s-1.65,1.44-2.04,2.58c-.39,1.13-.58,2.61-.58,4.42v4.96h14.29v9.72h-14.29v42.38h-12.05Z"/>
    <path d="m432.43,124.12v-53.03h9.5l2.77,8.51c2.11-2.57,4.45-4.75,7.02-6.53,2.57-1.78,5.64-2.67,9.2-2.67.72,0,1.48.05,2.28.15.79.1,1.52.25,2.18.45v12.47c-.92-.13-1.91-.23-2.97-.3-1.06-.06-2.08-.1-3.07-.1-2.05,0-3.91.23-5.59.69-1.68.46-3.25,1.17-4.7,2.13-1.45.96-2.9,2.16-4.35,3.61v34.63h-12.27Z"/>
    <path d="m472.99,62.68c-1.25,0-1.88-.59-1.88-1.78v-9c0-1.32.63-1.98,1.88-1.98h9.3c.59,0,1.04.2,1.34.59.3.4.45.86.45,1.39v9c0,1.19-.59,1.78-1.78,1.78h-9.3Zm-1.58,61.44v-53.03h12.27v53.03h-12.27Z"/>
    <path d="m493.77,124.12V48.62h12.27v41.85h6.73l13.26-19.39h12.57l-16.82,24.93,18.21,28.1h-12.57l-14.84-22.66h-6.53v22.66h-12.27Z"/>
    <path d="m555.41,124.71c-3.96,0-7.19-1.19-9.7-3.56-2.51-2.37-3.76-5.64-3.76-9.8v-4.45c0-4.09,1.4-7.42,4.2-9.99,2.8-2.57,7.11-3.86,12.91-3.86h15.14v-4.65c0-1.85-.33-3.4-.99-4.65-.66-1.25-1.85-2.19-3.56-2.82-1.72-.63-4.32-.94-7.82-.94h-16.03v-7.12c2.44-.66,5.31-1.24,8.61-1.73,3.3-.49,7.22-.74,11.77-.74,4.35-.07,8.05.45,11.08,1.53,3.03,1.09,5.33,2.89,6.88,5.39,1.55,2.51,2.33,5.94,2.33,10.29v36.51h-9.6l-2.08-5.74c-.46.4-1.29.92-2.47,1.58-1.19.66-2.67,1.37-4.45,2.13-1.78.76-3.74,1.39-5.89,1.88-2.14.49-4.34.74-6.58.74Zm5.94-8.61c.86,0,1.83-.11,2.92-.35,1.09-.23,2.19-.49,3.31-.79,1.12-.3,2.16-.59,3.12-.89.96-.3,1.75-.58,2.37-.84.63-.26,1-.43,1.14-.49v-13.85l-11.48.59c-3.04.27-5.23,1.06-6.58,2.37-1.35,1.32-2.03,3.07-2.03,5.24v2.18c0,1.65.35,2.99,1.04,4.01.69,1.02,1.58,1.73,2.67,2.13,1.09.4,2.26.63,3.51.69Z"/>
  </g>
</svg>