<?xml version="1.0" encoding="UTF-8"?>
<svg id="Layer_1" data-name="Layer 1" xmlns="http://www.w3.org/2000/svg" viewBox="0 0 1080 1080">
  <defs>
    <style>
      .cls-1 {
        fill: #fff;
      }

      .cls-2 {
        fill: #0061ed;
      }
    </style>
  </defs>
  <rect class="cls-2" y="0" width="1080" height="1080"/>
  <g>
    <g>
      <g>
        <path class="cls-1" d="M581.65,358.61c-1.54,3.34-2.48,7.94-2.48,13.05,0,9.94,3.61,18.06,8.12,18.46v1.45h-97.68c-11,0-19.9-8.91-19.9-19.9,0-5.5,2.23-10.48,5.84-14.07,3.59-3.61,8.57-5.84,14.07-5.84h97.68v1.46c-2.21.2-4.18,2.21-5.64,5.39Z"/>
        <path class="cls-1" d="M608.26,415.68c-1.54,3.34-2.48,7.94-2.48,13.05,0,9.94,3.61,18.06,8.12,18.46v1.45h-97.68c-11,0-19.9-8.91-19.9-19.9,0-5.5,2.23-10.48,5.84-14.07,3.59-3.61,8.57-5.84,14.07-5.84h97.68v1.46c-2.21.2-4.18,2.21-5.64,5.39Z"/>
        <path class="cls-1" d="M581.65,472.75c-1.54,3.34-2.48,7.94-2.48,13.05,0,9.94,3.61,18.06,8.12,18.46v1.45h-97.68c-11,0-19.9-8.91-19.9-19.9,0-5.5,2.23-10.48,5.84-14.07,3.59-3.61,8.57-5.84,14.07-5.84h97.68v1.46c-2.21.2-4.18,2.21-5.64,5.39Z"/>
      </g>
      <g>
        <path class="cls-1" d="M344.37,566.2v23.36h31.37v14.82h-31.37v24.7h35.38v15.22h-54.07v-93.32h54.07v15.22h-35.38Z"/>
        <path class="cls-1" d="M408.72,545.5v98.79h-18.69v-98.79h18.69Z"/>
        <path class="cls-1" d="M564.72,577.61c5.56,5.56,8.34,13.33,8.34,23.3v43.39h-18.69v-40.85c0-5.78-1.47-10.21-4.41-13.28-2.94-3.07-6.94-4.61-12.02-4.61s-9.1,1.53-12.08,4.61c-2.98,3.07-4.47,7.5-4.47,13.28v40.85h-18.69v-40.85c0-5.78-1.47-10.21-4.41-13.28-2.94-3.07-6.94-4.61-12.02-4.61s-9.23,1.53-12.22,4.61c-2.98,3.07-4.47,7.5-4.47,13.28v40.85h-18.69v-73.96h18.69v8.95c2.4-3.12,5.49-5.56,9.28-7.34,3.78-1.78,7.94-2.67,12.48-2.67,5.78,0,10.95,1.22,15.49,3.67,4.54,2.45,8.05,5.94,10.55,10.48,2.4-4.27,5.89-7.7,10.48-10.28,4.58-2.58,9.55-3.87,14.89-3.87,9.08,0,16.4,2.78,21.96,8.34Z"/>
        <path class="cls-1" d="M421.6,564.06c-2.18-2.09-3.27-4.69-3.27-7.81s1.09-5.72,3.27-7.81c2.18-2.09,4.92-3.14,8.21-3.14s6.03,1.05,8.21,3.14c2.18,2.09,3.27,4.7,3.27,7.81s-1.09,5.72-3.27,7.81c-2.18,2.09-4.92,3.14-8.21,3.14s-6.03-1.05-8.21-3.14ZM439.03,577.17v67.13h-18.69v-67.13h18.69Z"/>
        <path class="cls-1" d="M585.61,564.06c-2.18-2.09-3.27-4.69-3.27-7.81s1.09-5.72,3.27-7.81c2.18-2.09,4.92-3.14,8.21-3.14s6.03,1.05,8.21,3.14c2.18,2.09,3.27,4.7,3.27,7.81s-1.09,5.72-3.27,7.81c-2.18,2.09-4.92,3.14-8.21,3.14s-6.03-1.05-8.21-3.14ZM603.04,577.17v67.13h-18.69v-67.13h18.69Z"/>
        <path class="cls-1" d="M658.37,644.3l-25.1-31.51v31.51h-18.69v-98.79h18.69v56.21l24.83-31.37h24.3l-32.58,37.11,32.84,36.85h-24.3Z"/>
        <path class="cls-1" d="M685.54,587.16c2.98-5.78,7.03-10.23,12.15-13.35,5.12-3.11,10.83-4.67,17.16-4.67,5.52,0,10.35,1.11,14.49,3.34,4.14,2.23,7.45,5.03,9.95,8.41v-10.55h18.82v73.96h-18.82v-10.81c-2.4,3.47-5.72,6.34-9.95,8.61-4.23,2.27-9.1,3.41-14.62,3.41-6.23,0-11.9-1.6-17.02-4.81-5.12-3.2-9.17-7.72-12.15-13.55-2.98-5.83-4.47-12.53-4.47-20.09s1.49-14.1,4.47-19.89ZM736.61,595.63c-1.78-3.25-4.18-5.74-7.21-7.48-3.03-1.74-6.27-2.6-9.75-2.6s-6.68.85-9.61,2.54c-2.94,1.69-5.32,4.16-7.14,7.41-1.83,3.25-2.74,7.1-2.74,11.55s.91,8.34,2.74,11.68c1.82,3.34,4.23,5.9,7.21,7.68,2.98,1.78,6.16,2.67,9.55,2.67s6.72-.87,9.75-2.6c3.03-1.74,5.43-4.23,7.21-7.48,1.78-3.25,2.67-7.14,2.67-11.68s-.89-8.43-2.67-11.68Z"/>
      </g>
    </g>
    <g>
      <path class="cls-1" d="M328.74,675.94v18.18c0,2.56.62,4.45,1.88,5.69,1.25,1.24,2.99,1.85,5.21,1.85s3.92-.62,5.17-1.85c1.25-1.24,1.88-3.13,1.88-5.69v-18.18h3.75v18.14c0,2.39-.48,4.4-1.44,6.04-.96,1.64-2.26,2.85-3.9,3.65-1.64.8-3.47,1.2-5.5,1.2s-3.87-.4-5.5-1.2c-1.63-.8-2.93-2.01-3.87-3.65-.95-1.63-1.42-3.65-1.42-6.04v-18.14h3.75Z"/>
      <path class="cls-1" d="M370.58,684.16c1.7,1.66,2.56,4.06,2.56,7.19v13.31h-3.71v-12.78c0-2.25-.56-3.98-1.69-5.17-1.13-1.2-2.67-1.79-4.62-1.79s-3.55.62-4.72,1.85-1.75,3.04-1.75,5.4v12.49h-3.75v-22.59h3.75v3.21c.74-1.15,1.75-2.05,3.03-2.68,1.28-.63,2.69-.95,4.23-.95,2.75,0,4.97.83,6.68,2.49Z"/>
      <path class="cls-1" d="M379.4,677.67c-.49-.49-.74-1.1-.74-1.81s.25-1.32.74-1.81c.49-.5,1.1-.74,1.81-.74s1.27.25,1.75.74c.48.49.72,1.1.72,1.81s-.24,1.32-.72,1.81c-.48.5-1.06.74-1.75.74s-1.32-.25-1.81-.74ZM383.02,682.08v22.59h-3.75v-22.59h3.75Z"/>
      <path class="cls-1" d="M397.82,701.2l7.01-19.13h4l-8.86,22.59h-4.37l-8.86-22.59h4.04l7.05,19.13Z"/>
      <path class="cls-1" d="M433.02,694.77h-18.05c.14,2.23.9,3.96,2.29,5.21,1.39,1.25,3.07,1.88,5.05,1.88,1.62,0,2.97-.38,4.06-1.13,1.09-.75,1.85-1.76,2.29-3.03h4.04c-.6,2.17-1.81,3.94-3.63,5.3-1.81,1.36-4.07,2.04-6.76,2.04-2.14,0-4.06-.48-5.75-1.44s-3.02-2.33-3.98-4.1-1.44-3.83-1.44-6.16.47-4.38,1.4-6.14c.93-1.76,2.25-3.11,3.94-4.06,1.69-.95,3.63-1.42,5.83-1.42s4.04.47,5.69,1.4c1.65.93,2.92,2.22,3.81,3.85.89,1.63,1.34,3.48,1.34,5.54,0,.71-.04,1.47-.12,2.27ZM428.32,688.03c-.63-1.03-1.49-1.81-2.58-2.35-1.09-.54-2.29-.8-3.61-.8-1.9,0-3.51.61-4.84,1.81-1.33,1.21-2.1,2.88-2.29,5.03h14.26c0-1.43-.32-2.66-.95-3.69Z"/>
      <path class="cls-1" d="M444.66,682.74c1.22-.71,2.71-1.07,4.47-1.07v3.88h-.99c-4.2,0-6.31,2.28-6.31,6.84v12.28h-3.75v-22.59h3.75v3.67c.66-1.29,1.6-2.29,2.82-3.01Z"/>
      <path class="cls-1" d="M456.8,704.15c-1.37-.59-2.46-1.41-3.26-2.47-.8-1.06-1.24-2.27-1.32-3.65h3.87c.11,1.13.64,2.05,1.59,2.76.95.72,2.19,1.07,3.73,1.07,1.43,0,2.56-.32,3.38-.95.82-.63,1.24-1.43,1.24-2.39s-.44-1.72-1.32-2.21c-.88-.48-2.24-.95-4.08-1.42-1.68-.44-3.04-.89-4.1-1.34-1.06-.45-1.96-1.13-2.72-2.02-.76-.89-1.13-2.07-1.13-3.52,0-1.15.34-2.21,1.03-3.17.69-.96,1.66-1.72,2.93-2.29,1.26-.56,2.71-.85,4.33-.85,2.5,0,4.52.63,6.06,1.9,1.54,1.26,2.36,3,2.47,5.19h-3.75c-.08-1.18-.56-2.13-1.42-2.84-.87-.71-2.03-1.07-3.48-1.07-1.35,0-2.42.29-3.21.87-.8.58-1.2,1.33-1.2,2.27,0,.74.24,1.35.72,1.83.48.48,1.09.87,1.81,1.15.73.29,1.74.61,3.03.97,1.62.44,2.94.87,3.96,1.3,1.02.43,1.89,1.06,2.62,1.92.73.85,1.11,1.96,1.13,3.34,0,1.24-.34,2.35-1.03,3.34-.69.99-1.66,1.77-2.91,2.33-1.25.56-2.69.84-4.31.84-1.73,0-3.28-.3-4.66-.89Z"/>
      <path class="cls-1" d="M474.98,687.21c.93-1.74,2.22-3.1,3.85-4.06,1.63-.96,3.46-1.44,5.46-1.44s3.7.43,5.15,1.28c1.46.85,2.54,1.92,3.26,3.21v-4.12h3.79v22.59h-3.79v-4.2c-.74,1.32-1.85,2.41-3.32,3.28-1.47.87-3.18,1.3-5.13,1.3s-3.82-.5-5.44-1.48c-1.62-.99-2.9-2.38-3.83-4.16-.93-1.79-1.4-3.82-1.4-6.1s.47-4.33,1.4-6.08ZM491.67,688.88c-.69-1.26-1.61-2.23-2.78-2.91-1.17-.67-2.45-1.01-3.85-1.01s-2.68.33-3.83.99c-1.15.66-2.08,1.62-2.76,2.88-.69,1.26-1.03,2.75-1.03,4.45s.34,3.24,1.03,4.51c.69,1.28,1.61,2.25,2.76,2.93,1.15.67,2.43,1.01,3.83,1.01s2.69-.34,3.85-1.01c1.17-.67,2.1-1.65,2.78-2.93.69-1.28,1.03-2.77,1.03-4.47s-.34-3.19-1.03-4.45Z"/>
      <path class="cls-1" d="M506.59,674.16v30.5h-3.75v-30.5h3.75Z"/>
      <path class="cls-1" d="M528.01,703.94c-1.5-.67-2.67-1.61-3.52-2.8-.85-1.2-1.29-2.58-1.32-4.14h4c.14,1.35.69,2.48,1.67,3.4.98.92,2.4,1.38,4.27,1.38s3.19-.45,4.22-1.34c1.03-.89,1.55-2.04,1.55-3.44,0-1.1-.3-1.99-.91-2.68-.6-.69-1.36-1.21-2.27-1.57-.91-.36-2.13-.74-3.67-1.15-1.9-.49-3.41-.99-4.55-1.48-1.14-.5-2.12-1.27-2.93-2.33-.81-1.06-1.22-2.48-1.22-4.27,0-1.57.4-2.95,1.2-4.16.8-1.21,1.92-2.14,3.36-2.8,1.44-.66,3.1-.99,4.97-.99,2.69,0,4.9.67,6.62,2.02,1.72,1.35,2.69,3.13,2.91,5.36h-4.12c-.14-1.1-.72-2.07-1.73-2.91-1.02-.84-2.36-1.26-4.04-1.26-1.57,0-2.84.41-3.83,1.22s-1.48,1.94-1.48,3.4c0,1.04.29,1.9.89,2.56.59.66,1.32,1.16,2.18,1.5.87.34,2.08.74,3.65,1.17,1.9.52,3.42,1.04,4.58,1.55,1.15.51,2.14,1.29,2.97,2.35.82,1.06,1.24,2.49,1.24,4.31,0,1.4-.37,2.72-1.11,3.96-.74,1.24-1.84,2.24-3.3,3.01-1.46.77-3.17,1.15-5.15,1.15s-3.59-.34-5.09-1.01Z"/>
      <path class="cls-1" d="M560.79,704.67l-8.86-9.97v9.97h-3.75v-30.5h3.75v17.93l8.7-10.02h5.23l-10.63,11.25,10.68,11.33h-5.11Z"/>
      <path class="cls-1" d="M569.53,677.67c-.49-.49-.74-1.1-.74-1.81s.25-1.32.74-1.81c.49-.5,1.1-.74,1.81-.74s1.27.25,1.75.74c.48.49.72,1.1.72,1.81s-.24,1.32-.72,1.81c-.48.5-1.06.74-1.75.74s-1.32-.25-1.81-.74ZM573.16,682.08v22.59h-3.75v-22.59h3.75Z"/>
      <path class="cls-1" d="M583.3,674.16v30.5h-3.75v-30.5h3.75Z"/>
      <path class="cls-1" d="M593.44,674.16v30.5h-3.75v-30.5h3.75Z"/>
      <path class="cls-1" d="M603.17,704.15c-1.37-.59-2.46-1.41-3.26-2.47-.8-1.06-1.24-2.27-1.32-3.65h3.87c.11,1.13.64,2.05,1.59,2.76.95.72,2.19,1.07,3.73,1.07,1.43,0,2.56-.32,3.38-.95.82-.63,1.24-1.43,1.24-2.39s-.44-1.72-1.32-2.21c-.88-.48-2.24-.95-4.08-1.42-1.68-.44-3.04-.89-4.1-1.34-1.06-.45-1.96-1.13-2.72-2.02-.76-.89-1.13-2.07-1.13-3.52,0-1.15.34-2.21,1.03-3.17.69-.96,1.66-1.72,2.93-2.29,1.26-.56,2.71-.85,4.33-.85,2.5,0,4.52.63,6.06,1.9,1.54,1.26,2.36,3,2.47,5.19h-3.75c-.08-1.18-.56-2.13-1.42-2.84-.87-.71-2.03-1.07-3.48-1.07-1.35,0-2.42.29-3.21.87-.8.58-1.2,1.33-1.2,2.27,0,.74.24,1.35.72,1.83.48.48,1.09.87,1.81,1.15.73.29,1.74.61,3.03.97,1.62.44,2.94.87,3.96,1.3,1.02.43,1.89,1.06,2.62,1.92.73.85,1.11,1.96,1.13,3.34,0,1.24-.34,2.35-1.03,3.34-.69.99-1.66,1.77-2.91,2.33-1.25.56-2.69.84-4.31.84-1.73,0-3.28-.3-4.66-.89Z"/>
      <path class="cls-1" d="M668.45,675.94l-8.33,28.73h-4.2l-6.68-23.12-6.92,23.12-4.16.04-8.04-28.77h4l6.27,24.36,6.92-24.36h4.2l6.59,24.28,6.31-24.28h4.04Z"/>
      <path class="cls-1" d="M672.58,687.21c.93-1.74,2.22-3.1,3.85-4.06,1.63-.96,3.46-1.44,5.46-1.44s3.7.43,5.15,1.28c1.46.85,2.54,1.92,3.26,3.21v-4.12h3.79v22.59h-3.79v-4.2c-.74,1.32-1.85,2.41-3.32,3.28-1.47.87-3.18,1.3-5.13,1.3s-3.82-.5-5.44-1.48c-1.62-.99-2.9-2.38-3.83-4.16-.93-1.79-1.4-3.82-1.4-6.1s.47-4.33,1.4-6.08ZM689.27,688.88c-.69-1.26-1.61-2.23-2.78-2.91-1.17-.67-2.45-1.01-3.85-1.01s-2.68.33-3.83.99c-1.15.66-2.08,1.62-2.76,2.88-.69,1.26-1.03,2.75-1.03,4.45s.34,3.24,1.03,4.51c.69,1.28,1.61,2.25,2.76,2.93,1.15.67,2.43,1.01,3.83,1.01s2.69-.34,3.85-1.01c1.17-.67,2.1-1.65,2.78-2.93.69-1.28,1.03-2.77,1.03-4.47s-.34-3.19-1.03-4.45Z"/>
      <path class="cls-1" d="M704.19,674.16v30.5h-3.75v-30.5h3.75Z"/>
      <path class="cls-1" d="M714.33,674.16v30.5h-3.75v-30.5h3.75Z"/>
      <path class="cls-1" d="M741.2,694.77h-18.05c.14,2.23.9,3.96,2.29,5.21,1.39,1.25,3.07,1.88,5.05,1.88,1.62,0,2.97-.38,4.06-1.13,1.09-.75,1.85-1.76,2.29-3.03h4.04c-.6,2.17-1.81,3.94-3.63,5.3-1.81,1.36-4.07,2.04-6.76,2.04-2.14,0-4.06-.48-5.75-1.44s-3.02-2.33-3.98-4.1-1.44-3.83-1.44-6.16.47-4.38,1.4-6.14c.93-1.76,2.25-3.11,3.94-4.06,1.69-.95,3.63-1.42,5.83-1.42s4.04.47,5.69,1.4c1.65.93,2.92,2.22,3.81,3.85.89,1.63,1.34,3.48,1.34,5.54,0,.71-.04,1.47-.12,2.27ZM736.5,688.03c-.63-1.03-1.49-1.81-2.58-2.35-1.09-.54-2.29-.8-3.61-.8-1.9,0-3.51.61-4.84,1.81-1.33,1.21-2.1,2.88-2.29,5.03h14.26c0-1.43-.32-2.66-.95-3.69Z"/>
      <path class="cls-1" d="M750.85,685.17v13.31c0,1.1.23,1.88.7,2.33.47.45,1.28.68,2.43.68h2.76v3.17h-3.38c-2.09,0-3.65-.48-4.7-1.44-1.04-.96-1.57-2.54-1.57-4.74v-13.31h-2.93v-3.09h2.93v-5.69h3.75v5.69h5.89v3.09h-5.89Z"/>
    </g>
  </g>
</svg>