<?xml version="1.0" encoding="UTF-8"?>
<svg id="Layer_1" data-name="Layer 1" xmlns="http://www.w3.org/2000/svg" viewBox="200 440 700 185">
  <defs>
    <style>
      .cls-1 {
        fill: #0061ed;
      }
    </style>
  </defs>
  <g>
    <path d="M440.45,468.58v24.73h31.37v15.69h-31.37v26.15h35.38v16.11h-54.07v-98.79h54.07v16.11h-35.38Z"/>
    <path d="M504.8,452.47v98.79h-18.69v-98.79h18.69Z"/>
    <path d="M654.92,492.02c4.94,4.94,7.41,11.84,7.41,20.7v38.55h-16.6v-36.29c0-5.14-1.3-9.07-3.91-11.8-2.61-2.73-6.17-4.09-10.67-4.09s-8.09,1.36-10.73,4.09c-2.65,2.73-3.97,6.66-3.97,11.8v36.29h-16.6v-36.29c0-5.14-1.3-9.07-3.91-11.8-2.61-2.73-6.17-4.09-10.67-4.09s-8.2,1.36-10.85,4.09c-2.65,2.73-3.97,6.66-3.97,11.8v36.29h-16.6v-65.71h16.6v7.95c2.14-2.77,4.88-4.94,8.24-6.52,3.36-1.58,7.06-2.37,11.09-2.37,5.14,0,9.73,1.09,13.76,3.26,4.03,2.18,7.16,5.28,9.37,9.31,2.13-3.8,5.24-6.84,9.31-9.13,4.07-2.29,8.48-3.44,13.22-3.44,8.06,0,14.57,2.47,19.51,7.41Z"/>
    <path d="M517.69,471.02c-2.18-2.09-3.27-4.69-3.27-7.81s1.09-5.72,3.27-7.81c2.18-2.09,4.92-3.14,8.21-3.14s6.03,1.05,8.21,3.14c2.18,2.09,3.27,4.7,3.27,7.81s-1.09,5.72-3.27,7.81c-2.18,2.09-4.92,3.14-8.21,3.14s-6.03-1.05-8.21-3.14ZM535.11,484.13v67.13h-18.69v-67.13h18.69Z"/>
    <path d="M681.7,471.02c-2.18-2.09-3.27-4.69-3.27-7.81s1.09-5.72,3.27-7.81c2.18-2.09,4.92-3.14,8.21-3.14s6.03,1.05,8.21,3.14c2.18,2.09,3.27,4.7,3.27,7.81s-1.09,5.72-3.27,7.81c-2.18,2.09-4.92,3.14-8.21,3.14s-6.03-1.05-8.21-3.14ZM699.12,484.13v67.13h-18.69v-67.13h18.69Z"/>
    <path d="M754.46,551.26l-25.1-31.51v31.51h-18.69v-98.79h18.69v56.21l17.6-23.27h24.3l-25.35,29.02,32.84,36.85h-24.3Z"/>
    <path d="M785.21,500.26c2.67-5.18,6.29-9.16,10.87-11.95,4.58-2.79,9.69-4.18,15.35-4.18,4.94,0,9.26,1,12.96,2.99,3.7,1.99,6.67,4.5,8.9,7.53v-9.44h16.84v66.18h-16.84v-9.68c-2.15,3.11-5.12,5.67-8.9,7.7-3.78,2.03-8.14,3.05-13.08,3.05-5.58,0-10.65-1.43-15.23-4.3-4.58-2.87-8.2-6.91-10.87-12.12-2.67-5.22-4-11.21-4-17.98s1.33-12.62,4-17.8ZM830.9,507.84c-1.59-2.91-3.74-5.14-6.45-6.69-2.71-1.55-5.61-2.33-8.72-2.33s-5.97.76-8.6,2.27c-2.63,1.51-4.76,3.72-6.39,6.63-1.63,2.91-2.45,6.35-2.45,10.33s.82,7.47,2.45,10.45c1.63,2.99,3.78,5.28,6.45,6.87,2.67,1.59,5.51,2.39,8.54,2.39s6.01-.78,8.72-2.33c2.71-1.55,4.86-3.78,6.45-6.69,1.59-2.91,2.39-6.39,2.39-10.45s-.8-7.54-2.39-10.45Z"/>
  </g>
  <g>
    <path class="cls-1" d="M342.57,454.53c-1.65,3.59-2.67,8.55-2.67,14.05,0,10.71,3.88,19.45,8.75,19.87v1.56h-105.18c-11.84,0-21.43-9.59-21.43-21.43,0-5.92,2.4-11.28,6.29-15.15,3.86-3.88,9.23-6.29,15.15-6.29h105.18v1.58c-2.38.21-4.5,2.38-6.07,5.8Z"/>
    <path class="cls-1" d="M371.23,515.98c-1.65,3.59-2.67,8.55-2.67,14.05,0,10.71,3.88,19.45,8.75,19.87v1.56h-105.18c-11.84,0-21.43-9.59-21.43-21.43,0-5.92,2.4-11.28,6.29-15.15,3.86-3.88,9.23-6.29,15.15-6.29h105.18v1.58c-2.38.21-4.5,2.38-6.07,5.8Z"/>
    <path class="cls-1" d="M342.57,577.43c-1.65,3.59-2.67,8.55-2.67,14.05,0,10.71,3.88,19.45,8.75,19.87v1.56h-105.18c-11.84,0-21.43-9.59-21.43-21.43,0-5.92,2.4-11.28,6.29-15.15,3.86-3.88,9.23-6.29,15.15-6.29h105.18v1.58c-2.38.21-4.5,2.38-6.07,5.8Z"/>
  </g>
  <g>
    <path d="M428.6,580.54v18.18c0,2.56.62,4.45,1.88,5.69,1.25,1.24,2.99,1.85,5.21,1.85s3.92-.62,5.17-1.85c1.25-1.24,1.88-3.13,1.88-5.69v-18.18h3.75v18.14c0,2.39-.48,4.4-1.44,6.04-.96,1.64-2.26,2.85-3.9,3.65-1.64.8-3.47,1.2-5.5,1.2s-3.87-.4-5.5-1.2c-1.63-.8-2.93-2.01-3.87-3.65-.95-1.63-1.42-3.65-1.42-6.04v-18.14h3.75Z"/>
    <path d="M470.44,588.77c1.7,1.66,2.56,4.06,2.56,7.19v13.31h-3.71v-12.78c0-2.25-.56-3.98-1.69-5.17-1.13-1.2-2.67-1.79-4.62-1.79s-3.55.62-4.72,1.85-1.75,3.04-1.75,5.4v12.49h-3.75v-22.59h3.75v3.21c.74-1.15,1.75-2.05,3.03-2.68,1.28-.63,2.69-.95,4.23-.95,2.75,0,4.97.83,6.68,2.49Z"/>
    <path d="M479.26,582.28c-.49-.49-.74-1.1-.74-1.81s.25-1.32.74-1.81c.49-.5,1.1-.74,1.81-.74s1.27.25,1.75.74c.48.49.72,1.1.72,1.81s-.24,1.32-.72,1.81c-.48.5-1.06.74-1.75.74s-1.32-.25-1.81-.74ZM482.89,586.69v22.59h-3.75v-22.59h3.75Z"/>
    <path d="M497.68,605.81l7.01-19.13h4l-8.86,22.59h-4.37l-8.86-22.59h4.04l7.05,19.13Z"/>
    <path d="M532.88,599.38h-18.05c.14,2.23.9,3.96,2.29,5.21,1.39,1.25,3.07,1.88,5.05,1.88,1.62,0,2.97-.38,4.06-1.13,1.09-.75,1.85-1.76,2.29-3.03h4.04c-.6,2.17-1.81,3.94-3.63,5.3-1.81,1.36-4.07,2.04-6.76,2.04-2.14,0-4.06-.48-5.75-1.44s-3.02-2.33-3.98-4.1-1.44-3.83-1.44-6.16.47-4.38,1.4-6.14c.93-1.76,2.25-3.11,3.94-4.06,1.69-.95,3.63-1.42,5.83-1.42s4.04.47,5.69,1.4c1.65.93,2.92,2.22,3.81,3.85.89,1.63,1.34,3.48,1.34,5.54,0,.71-.04,1.47-.12,2.27ZM528.19,592.64c-.63-1.03-1.49-1.81-2.58-2.35-1.09-.54-2.29-.8-3.61-.8-1.9,0-3.51.61-4.84,1.81-1.33,1.21-2.1,2.88-2.29,5.03h14.26c0-1.43-.32-2.66-.95-3.69Z"/>
    <path d="M544.53,587.35c1.22-.71,2.71-1.07,4.47-1.07v3.88h-.99c-4.2,0-6.31,2.28-6.31,6.84v12.28h-3.75v-22.59h3.75v3.67c.66-1.29,1.6-2.29,2.82-3.01Z"/>
    <path d="M556.67,608.76c-1.37-.59-2.46-1.41-3.26-2.47-.8-1.06-1.24-2.27-1.32-3.65h3.88c.11,1.13.64,2.05,1.59,2.76.95.72,2.19,1.07,3.73,1.07,1.43,0,2.56-.32,3.38-.95.82-.63,1.24-1.43,1.24-2.39s-.44-1.72-1.32-2.21c-.88-.48-2.24-.95-4.08-1.42-1.68-.44-3.04-.89-4.1-1.34-1.06-.45-1.96-1.13-2.72-2.02-.76-.89-1.13-2.07-1.13-3.52,0-1.15.34-2.21,1.03-3.17.69-.96,1.66-1.72,2.93-2.29s2.71-.85,4.33-.85c2.5,0,4.52.63,6.06,1.9,1.54,1.26,2.36,3,2.47,5.19h-3.75c-.08-1.18-.56-2.13-1.42-2.84s-2.03-1.07-3.48-1.07c-1.35,0-2.42.29-3.21.87s-1.2,1.33-1.2,2.27c0,.74.24,1.35.72,1.83.48.48,1.08.87,1.81,1.15.73.29,1.74.61,3.03.97,1.62.44,2.94.87,3.96,1.3s1.89,1.06,2.62,1.92c.73.85,1.11,1.96,1.13,3.34,0,1.24-.34,2.35-1.03,3.34-.69.99-1.66,1.77-2.91,2.33-1.25.56-2.69.84-4.31.84-1.73,0-3.28-.3-4.66-.89Z"/>
    <path d="M574.84,591.82c.93-1.74,2.22-3.1,3.85-4.06,1.63-.96,3.46-1.44,5.46-1.44s3.7.43,5.15,1.28c1.46.85,2.54,1.92,3.26,3.21v-4.12h3.79v22.59h-3.79v-4.2c-.74,1.32-1.85,2.41-3.32,3.28-1.47.87-3.18,1.3-5.13,1.3s-3.82-.5-5.44-1.48c-1.62-.99-2.9-2.38-3.83-4.16-.93-1.79-1.4-3.82-1.4-6.1s.47-4.33,1.4-6.08ZM591.54,593.49c-.69-1.26-1.61-2.23-2.78-2.91-1.17-.67-2.45-1.01-3.85-1.01s-2.68.33-3.83.99c-1.15.66-2.08,1.62-2.76,2.88-.69,1.26-1.03,2.75-1.03,4.45s.34,3.24,1.03,4.51c.69,1.28,1.61,2.25,2.76,2.93,1.15.67,2.43,1.01,3.83,1.01s2.69-.34,3.85-1.01c1.17-.67,2.1-1.65,2.78-2.93.69-1.28,1.03-2.77,1.03-4.47s-.34-3.19-1.03-4.45Z"/>
    <path d="M606.46,578.77v30.5h-3.75v-30.5h3.75Z"/>
    <path d="M627.87,608.55c-1.5-.67-2.67-1.61-3.52-2.8s-1.29-2.58-1.32-4.14h4c.14,1.35.69,2.48,1.67,3.4s2.4,1.38,4.27,1.38,3.19-.45,4.22-1.34,1.55-2.04,1.55-3.44c0-1.1-.3-1.99-.91-2.68-.6-.69-1.36-1.21-2.27-1.57-.91-.36-2.13-.74-3.67-1.15-1.9-.49-3.41-.99-4.55-1.48-1.14-.5-2.12-1.27-2.93-2.33-.81-1.06-1.22-2.48-1.22-4.27,0-1.57.4-2.95,1.2-4.16s1.92-2.14,3.36-2.8c1.44-.66,3.1-.99,4.97-.99,2.69,0,4.9.67,6.62,2.02,1.72,1.35,2.69,3.13,2.91,5.36h-4.12c-.14-1.1-.72-2.07-1.73-2.91-1.02-.84-2.36-1.26-4.04-1.26-1.57,0-2.84.41-3.83,1.22s-1.48,1.94-1.48,3.4c0,1.04.29,1.9.89,2.56.59.66,1.32,1.16,2.18,1.5.87.34,2.08.74,3.65,1.17,1.9.52,3.42,1.04,4.58,1.55,1.15.51,2.14,1.29,2.97,2.35.82,1.06,1.24,2.49,1.24,4.31,0,1.4-.37,2.72-1.11,3.96-.74,1.24-1.84,2.24-3.3,3.01-1.46.77-3.17,1.15-5.15,1.15s-3.59-.34-5.09-1.01Z"/>
    <path d="M660.66,609.27l-8.86-9.97v9.97h-3.75v-30.5h3.75v17.93l8.7-10.02h5.23l-10.63,11.25,10.67,11.33h-5.11Z"/>
    <path d="M669.4,582.28c-.5-.49-.74-1.1-.74-1.81s.25-1.32.74-1.81c.49-.5,1.1-.74,1.81-.74s1.27.25,1.75.74c.48.49.72,1.1.72,1.81s-.24,1.32-.72,1.81c-.48.5-1.07.74-1.75.74s-1.32-.25-1.81-.74ZM673.02,586.69v22.59h-3.75v-22.59h3.75Z"/>
    <path d="M683.16,578.77v30.5h-3.75v-30.5h3.75Z"/>
    <path d="M693.3,578.77v30.5h-3.75v-30.5h3.75Z"/>
    <path d="M703.03,608.76c-1.38-.59-2.46-1.41-3.26-2.47-.8-1.06-1.24-2.27-1.32-3.65h3.87c.11,1.13.64,2.05,1.59,2.76.95.72,2.19,1.07,3.73,1.07,1.43,0,2.56-.32,3.38-.95.82-.63,1.24-1.43,1.24-2.39s-.44-1.72-1.32-2.21c-.88-.48-2.24-.95-4.08-1.42-1.68-.44-3.04-.89-4.1-1.34s-1.96-1.13-2.72-2.02c-.76-.89-1.13-2.07-1.13-3.52,0-1.15.34-2.21,1.03-3.17.69-.96,1.66-1.72,2.93-2.29,1.26-.56,2.71-.85,4.33-.85,2.5,0,4.52.63,6.06,1.9,1.54,1.26,2.36,3,2.47,5.19h-3.75c-.08-1.18-.56-2.13-1.42-2.84-.87-.71-2.03-1.07-3.48-1.07-1.35,0-2.42.29-3.21.87-.8.58-1.2,1.33-1.2,2.27,0,.74.24,1.35.72,1.83.48.48,1.09.87,1.81,1.15.73.29,1.74.61,3.03.97,1.62.44,2.94.87,3.96,1.3,1.02.43,1.89,1.06,2.62,1.92.73.85,1.11,1.96,1.13,3.34,0,1.24-.34,2.35-1.03,3.34s-1.66,1.77-2.91,2.33c-1.25.56-2.69.84-4.31.84-1.73,0-3.28-.3-4.66-.89Z"/>
    <path d="M768.32,580.54l-8.33,28.73h-4.21l-6.68-23.12-6.92,23.12-4.16.04-8.04-28.77h4l6.26,24.36,6.92-24.36h4.2l6.59,24.28,6.31-24.28h4.04Z"/>
    <path d="M772.44,591.82c.93-1.74,2.22-3.1,3.85-4.06,1.63-.96,3.46-1.44,5.46-1.44s3.7.43,5.15,1.28c1.46.85,2.54,1.92,3.26,3.21v-4.12h3.79v22.59h-3.79v-4.2c-.74,1.32-1.85,2.41-3.32,3.28-1.47.87-3.18,1.3-5.13,1.3s-3.82-.5-5.44-1.48c-1.62-.99-2.9-2.38-3.83-4.16-.93-1.79-1.4-3.82-1.4-6.1s.47-4.33,1.4-6.08ZM789.13,593.49c-.69-1.26-1.61-2.23-2.78-2.91-1.17-.67-2.45-1.01-3.85-1.01s-2.68.33-3.83.99c-1.15.66-2.08,1.62-2.76,2.88-.69,1.26-1.03,2.75-1.03,4.45s.34,3.24,1.03,4.51c.69,1.28,1.61,2.25,2.76,2.93,1.15.67,2.43,1.01,3.83,1.01s2.69-.34,3.85-1.01c1.17-.67,2.1-1.65,2.78-2.93.69-1.28,1.03-2.77,1.03-4.47s-.34-3.19-1.03-4.45Z"/>
    <path d="M804.05,578.77v30.5h-3.75v-30.5h3.75Z"/>
    <path d="M814.19,578.77v30.5h-3.75v-30.5h3.75Z"/>
    <path d="M841.07,599.38h-18.05c.14,2.23.9,3.96,2.29,5.21,1.39,1.25,3.07,1.88,5.05,1.88,1.62,0,2.97-.38,4.06-1.13,1.08-.75,1.85-1.76,2.29-3.03h4.04c-.61,2.17-1.81,3.94-3.63,5.3-1.81,1.36-4.07,2.04-6.76,2.04-2.14,0-4.06-.48-5.75-1.44-1.69-.96-3.02-2.33-3.98-4.1s-1.44-3.83-1.44-6.16.47-4.38,1.4-6.14c.93-1.76,2.25-3.11,3.94-4.06,1.69-.95,3.63-1.42,5.83-1.42s4.04.47,5.69,1.4c1.65.93,2.92,2.22,3.81,3.85s1.34,3.48,1.34,5.54c0,.71-.04,1.47-.12,2.27ZM836.37,592.64c-.63-1.03-1.49-1.81-2.58-2.35-1.09-.54-2.29-.8-3.61-.8-1.9,0-3.51.61-4.84,1.81s-2.1,2.88-2.29,5.03h14.26c0-1.43-.32-2.66-.95-3.69Z"/>
    <path d="M850.71,589.78v13.31c0,1.1.23,1.88.7,2.33.47.45,1.28.68,2.43.68h2.76v3.17h-3.38c-2.09,0-3.65-.48-4.7-1.44-1.04-.96-1.57-2.54-1.57-4.74v-13.31h-2.93v-3.09h2.93v-5.69h3.75v5.69h5.89v3.09h-5.89Z"/>
  </g>
</svg>
