<?xml version="1.0" encoding="UTF-8"?>
<svg id="Layer_1" data-name="Layer 1" xmlns="http://www.w3.org/2000/svg" viewBox="0 0 1080 1080">
  <defs>
    <style>
      .cls-1 {
        fill: #0061ed;
      }
    </style>
  </defs>
  <g>
    <path d="m438.59,507.46v24.73h31.37v15.69h-31.37v26.15h35.38v16.11h-54.07v-98.79h54.07v16.11h-35.38Z"/>
    <path d="m502.94,491.35v98.79h-18.69v-98.79h18.69Z"/>
    <path d="m653.05,530.9c4.94,4.94,7.41,11.84,7.41,20.7v38.55h-16.6v-36.29c0-5.14-1.3-9.07-3.91-11.8-2.61-2.73-6.17-4.09-10.67-4.09s-8.09,1.36-10.73,4.09c-2.65,2.73-3.97,6.66-3.97,11.8v36.29h-16.6v-36.29c0-5.14-1.3-9.07-3.91-11.8-2.61-2.73-6.17-4.09-10.67-4.09s-8.2,1.36-10.85,4.09c-2.65,2.73-3.97,6.66-3.97,11.8v36.29h-16.6v-65.71h16.6v7.95c2.14-2.77,4.88-4.94,8.24-6.52,3.36-1.58,7.06-2.37,11.09-2.37,5.14,0,9.73,1.09,13.76,3.26,4.03,2.18,7.16,5.28,9.37,9.31,2.13-3.8,5.24-6.84,9.31-9.13,4.07-2.29,8.48-3.44,13.22-3.44,8.06,0,14.57,2.47,19.51,7.41Z"/>
    <path d="m515.82,509.9c-2.18-2.09-3.27-4.69-3.27-7.81s1.09-5.72,3.27-7.81c2.18-2.09,4.92-3.14,8.21-3.14s6.03,1.05,8.21,3.14c2.18,2.09,3.27,4.7,3.27,7.81s-1.09,5.72-3.27,7.81c-2.18,2.09-4.92,3.14-8.21,3.14s-6.03-1.05-8.21-3.14Zm17.42,13.11v67.13h-18.69v-67.13h18.69Z"/>
    <path d="m679.83,509.9c-2.18-2.09-3.27-4.69-3.27-7.81s1.09-5.72,3.27-7.81c2.18-2.09,4.92-3.14,8.21-3.14s6.03,1.05,8.21,3.14c2.18,2.09,3.27,4.7,3.27,7.81s-1.09,5.72-3.27,7.81c-2.18,2.09-4.92,3.14-8.21,3.14s-6.03-1.05-8.21-3.14Zm17.42,13.11v67.13h-18.69v-67.13h18.69Z"/>
    <path d="m752.59,590.14l-25.1-31.51v31.51h-18.69v-98.79h18.69v56.21l17.6-23.27h24.3l-25.35,29.02,32.84,36.85h-24.3Z"/>
    <path d="m783.34,539.14c2.67-5.18,6.29-9.16,10.87-11.95,4.58-2.79,9.69-4.18,15.35-4.18,4.94,0,9.26,1,12.96,2.99,3.7,1.99,6.67,4.5,8.9,7.53v-9.44h16.84v66.18h-16.84v-9.68c-2.15,3.11-5.12,5.67-8.9,7.7-3.78,2.03-8.14,3.05-13.08,3.05-5.58,0-10.65-1.43-15.23-4.3-4.58-2.87-8.2-6.91-10.87-12.12-2.67-5.22-4-11.21-4-17.98s1.33-12.62,4-17.8Zm45.69,7.59c-1.59-2.91-3.74-5.14-6.45-6.69-2.71-1.55-5.61-2.33-8.72-2.33s-5.97.76-8.6,2.27c-2.63,1.51-4.76,3.72-6.39,6.63-1.63,2.91-2.45,6.35-2.45,10.33s.82,7.47,2.45,10.45c1.63,2.99,3.78,5.28,6.45,6.87,2.67,1.59,5.51,2.39,8.54,2.39s6.01-.78,8.72-2.33c2.71-1.55,4.86-3.78,6.45-6.69,1.59-2.91,2.39-6.39,2.39-10.45s-.8-7.54-2.39-10.45Z"/>
  </g>
  <g>
    <path class="cls-1" d="m352.27,464.5c-1.65,3.59-2.67,8.55-2.67,14.05,0,10.71,3.88,19.45,8.75,19.87v1.56h-105.18c-11.84,0-21.43-9.59-21.43-21.43,0-5.92,2.4-11.28,6.29-15.15,3.86-3.88,9.23-6.29,15.15-6.29h105.18v1.58c-2.38.21-4.5,2.38-6.07,5.8Z"/>
    <path class="cls-1" d="m380.92,525.95c-1.65,3.59-2.67,8.55-2.67,14.05,0,10.71,3.88,19.45,8.75,19.87v1.56h-105.18c-11.84,0-21.43-9.59-21.43-21.43,0-5.92,2.4-11.28,6.29-15.15,3.86-3.88,9.23-6.29,15.15-6.29h105.18v1.58c-2.38.21-4.5,2.38-6.07,5.8Z"/>
    <path class="cls-1" d="m352.27,587.4c-1.65,3.59-2.67,8.55-2.67,14.05,0,10.71,3.88,19.45,8.75,19.87v1.56h-105.18c-11.84,0-21.43-9.59-21.43-21.43,0-5.92,2.4-11.28,6.29-15.15,3.86-3.88,9.23-6.29,15.15-6.29h105.18v1.58c-2.38.21-4.5,2.38-6.07,5.8Z"/>
  </g>
</svg>