<?xml version="1.0" encoding="UTF-8"?>
<svg id="Layer_1" data-name="Layer 1" xmlns="http://www.w3.org/2000/svg" viewBox="0 0 1080 1080">
  <defs>
    <style>
      .cls-1 {
        fill: #0061ed;
      }
    </style>
  </defs>
  <path class="cls-1" d="m620.87,397.68c-3.12,6.78-5.04,16.12-5.04,26.48,0,20.18,7.32,36.67,16.49,37.46v2.93h-198.26c-22.32,0-40.4-18.08-40.4-40.4,0-11.16,4.53-21.27,11.85-28.55,7.28-7.32,17.39-11.85,28.55-11.85h198.26v2.97c-4.49.4-8.48,4.49-11.45,10.94Z"/>
  <path class="cls-1" d="m674.89,513.52c-3.12,6.78-5.04,16.12-5.04,26.48,0,20.18,7.32,36.67,16.49,37.46v2.93h-198.26c-22.32,0-40.4-18.08-40.4-40.4,0-11.16,4.53-21.27,11.85-28.55,7.28-7.32,17.39-11.85,28.55-11.85h198.26v2.97c-4.49.4-8.48,4.49-11.45,10.94Z"/>
  <path class="cls-1" d="m620.87,629.35c-3.12,6.77-5.04,16.12-5.04,26.48,0,20.18,7.32,36.67,16.49,37.46v2.93h-198.26c-22.32,0-40.4-18.08-40.4-40.4,0-11.16,4.53-21.27,11.85-28.55,7.28-7.32,17.39-11.85,28.55-11.85h198.26v2.97c-4.49.4-8.48,4.49-11.45,10.94Z"/>
</svg>