<?xml version="1.0" encoding="UTF-8"?>
<svg id="Layer_1" data-name="Layer 1" xmlns="http://www.w3.org/2000/svg" viewBox="0 0 1080 1080">
  <defs>
    <style>
      .cls-1 {
        fill: #0061ed;
      }
    </style>
  </defs>
  <g>
    <path class="cls-1" d="m579.76,399.98c-1.54,3.34-2.48,7.94-2.48,13.05,0,9.94,3.61,18.06,8.12,18.46v1.45h-97.68c-11,0-19.9-8.91-19.9-19.9,0-5.5,2.23-10.48,5.84-14.07,3.59-3.61,8.57-5.84,14.07-5.84h97.68v1.46c-2.21.2-4.18,2.21-5.64,5.39Z"/>
    <path class="cls-1" d="m606.37,457.05c-1.54,3.34-2.48,7.94-2.48,13.05,0,9.94,3.61,18.06,8.12,18.46v1.45h-97.68c-11,0-19.9-8.91-19.9-19.9,0-5.5,2.23-10.48,5.84-14.07,3.59-3.61,8.57-5.84,14.07-5.84h97.68v1.46c-2.21.2-4.18,2.21-5.64,5.39Z"/>
    <path class="cls-1" d="m579.76,514.12c-1.54,3.34-2.48,7.94-2.48,13.05,0,9.94,3.61,18.06,8.12,18.46v1.45h-97.68c-11,0-19.9-8.91-19.9-19.9,0-5.5,2.23-10.48,5.84-14.07,3.59-3.61,8.57-5.84,14.07-5.84h97.68v1.46c-2.21.2-4.18,2.21-5.64,5.39Z"/>
  </g>
  <g>
    <path d="m342.48,607.57v23.36h31.37v14.82h-31.37v24.7h35.38v15.22h-54.07v-93.32h54.07v15.22h-35.38Z"/>
    <path d="m406.83,586.87v98.79h-18.69v-98.79h18.69Z"/>
    <path d="m562.83,618.98c5.56,5.56,8.34,13.33,8.34,23.3v43.39h-18.69v-40.85c0-5.78-1.47-10.21-4.41-13.28-2.94-3.07-6.94-4.61-12.02-4.61s-9.1,1.53-12.08,4.61c-2.98,3.07-4.47,7.5-4.47,13.28v40.85h-18.69v-40.85c0-5.78-1.47-10.21-4.41-13.28-2.94-3.07-6.94-4.61-12.02-4.61s-9.23,1.53-12.22,4.61c-2.98,3.07-4.47,7.5-4.47,13.28v40.85h-18.69v-73.96h18.69v8.95c2.4-3.12,5.49-5.56,9.28-7.34,3.78-1.78,7.94-2.67,12.48-2.67,5.78,0,10.95,1.22,15.49,3.67,4.54,2.45,8.05,5.94,10.55,10.48,2.4-4.27,5.89-7.7,10.48-10.28,4.58-2.58,9.55-3.87,14.89-3.87,9.08,0,16.4,2.78,21.96,8.34Z"/>
    <path d="m419.71,605.43c-2.18-2.09-3.27-4.69-3.27-7.81s1.09-5.72,3.27-7.81c2.18-2.09,4.92-3.14,8.21-3.14s6.03,1.05,8.21,3.14c2.18,2.09,3.27,4.7,3.27,7.81s-1.09,5.72-3.27,7.81c-2.18,2.09-4.92,3.14-8.21,3.14s-6.03-1.05-8.21-3.14Zm17.42,13.11v67.13h-18.69v-67.13h18.69Z"/>
    <path d="m583.72,605.43c-2.18-2.09-3.27-4.69-3.27-7.81s1.09-5.72,3.27-7.81c2.18-2.09,4.92-3.14,8.21-3.14s6.03,1.05,8.21,3.14c2.18,2.09,3.27,4.7,3.27,7.81s-1.09,5.72-3.27,7.81c-2.18,2.09-4.92,3.14-8.21,3.14s-6.03-1.05-8.21-3.14Zm17.42,13.11v67.13h-18.69v-67.13h18.69Z"/>
    <path d="m656.48,685.67l-25.1-31.51v31.51h-18.69v-98.79h18.69v56.21l24.83-31.37h24.3l-32.58,37.11,32.84,36.85h-24.3Z"/>
    <path d="m683.65,628.53c2.98-5.78,7.03-10.23,12.15-13.35,5.12-3.11,10.83-4.67,17.16-4.67,5.52,0,10.35,1.11,14.49,3.34,4.14,2.23,7.45,5.03,9.95,8.41v-10.55h18.82v73.96h-18.82v-10.81c-2.4,3.47-5.72,6.34-9.95,8.61-4.23,2.27-9.1,3.41-14.62,3.41-6.23,0-11.9-1.6-17.02-4.81-5.12-3.2-9.17-7.72-12.15-13.55-2.98-5.83-4.47-12.53-4.47-20.09s1.49-14.1,4.47-19.89Zm51.07,8.48c-1.78-3.25-4.18-5.74-7.21-7.48-3.03-1.74-6.27-2.6-9.75-2.6s-6.68.85-9.61,2.54c-2.94,1.69-5.32,4.16-7.14,7.41-1.83,3.25-2.74,7.1-2.74,11.55s.91,8.34,2.74,11.68c1.82,3.34,4.23,5.9,7.21,7.68,2.98,1.78,6.16,2.67,9.55,2.67s6.72-.87,9.75-2.6c3.03-1.74,5.43-4.23,7.21-7.48,1.78-3.25,2.67-7.14,2.67-11.68s-.89-8.43-2.67-11.68Z"/>
  </g>
</svg>